<svg width="100%" height="100%" viewBox="34 6 95 42" fill="none" xmlns="http://www.w3.org/2000/svg">
<path d="M76.9785 17.4358C77.1378 17.4366 77.2972 17.4374 77.4613 17.4382C80.9985 17.4907 84.0118 18.7919 86.669 21.0926C86.7998 21.2047 86.7998 21.2047 86.9332 21.3189C88.6713 22.9239 89.8804 25.1412 90.5615 27.3771C90.5898 27.4694 90.6181 27.5617 90.6473 27.6569C91.236 29.7417 91.2146 31.8511 91.2131 33.9967C91.2136 34.3196 91.2143 34.6424 91.215 34.9653C91.216 35.6377 91.216 36.3102 91.2152 36.9826C91.2144 37.8447 91.2169 38.7068 91.2202 39.5689C91.2224 40.2337 91.2225 40.8985 91.222 41.5633C91.2221 41.8814 91.2229 42.1994 91.2243 42.5175C91.2261 42.9604 91.2251 43.4032 91.2235 43.8461C91.2246 43.9773 91.2257 44.1085 91.2268 44.2436C91.2224 44.7627 91.2184 45.1227 90.9806 45.5904C90.7339 45.7969 90.7339 45.7969 90.2167 45.8511C89.7177 45.7969 89.7177 45.7969 89.4273 45.508C89.3869 45.21 89.3869 45.21 89.381 44.8386C89.3767 44.6304 89.3767 44.6304 89.3723 44.418C89.3698 44.1927 89.3698 44.1927 89.3672 43.9628C89.363 43.7326 89.363 43.7326 89.3587 43.4977C89.35 43.006 89.3432 42.5143 89.3366 42.0227C89.331 41.6899 89.3254 41.3571 89.3196 41.0244C89.3056 40.2074 89.2932 39.3904 89.2821 38.5735C89.2163 38.669 89.1506 38.7646 89.0828 38.8631C88.4337 39.7978 87.7413 40.6355 86.9593 41.4628C86.8809 41.5519 86.8025 41.6409 86.7217 41.7326C84.441 44.2137 80.7369 45.3531 77.4724 45.5351C74.1373 45.5996 70.6158 44.5517 68.0865 42.3297C67.971 42.2352 67.8555 42.1408 67.7366 42.0435C65.081 39.8012 63.4839 36.6388 63.0053 33.2281C62.715 29.4299 63.4444 25.7325 65.9321 22.7377C66.2555 22.3739 66.5871 22.0209 66.925 21.6705C67.0688 21.5163 67.0688 21.5163 67.2154 21.359C69.7231 18.7427 73.3943 17.4164 76.9785 17.4358ZM67.7961 23.2597C65.5183 25.9082 64.4958 29.1187 64.7144 32.59C65.0287 35.9115 66.7113 38.8801 69.2479 41.0294C71.9858 43.1181 75.3096 44.0784 78.7413 43.6547C82.0314 43.1658 84.8496 41.464 86.9185 38.8742C88.9179 36.1861 89.7475 32.9335 89.2821 29.6163C88.7109 26.3453 86.9419 23.4079 84.2373 21.4267C78.9574 17.9458 72.1345 18.5817 67.7961 23.2597Z" fill="#00AFEF"/>
<path d="M59.1889 20.509C59.2989 20.6062 59.4089 20.7034 59.5223 20.8036C59.6919 20.9494 59.6919 20.9494 59.8648 21.0982C60.3718 21.5615 60.6491 21.8425 60.8471 22.5101C60.8289 22.9706 60.8289 22.9706 60.5386 23.4041C60.2028 23.5305 60.2028 23.5305 59.8127 23.5485C59.273 23.2721 58.8741 22.9307 58.4426 22.5101C56.1497 20.4282 52.9377 19.3708 49.8488 19.4627C46.5603 19.7361 43.5104 20.952 41.2302 23.4041C39.5777 25.3711 38.2919 27.8812 38.1815 30.4831C38.174 30.6365 38.1665 30.79 38.1588 30.9481C38.0688 34.5004 39.2165 37.5436 41.6657 40.1625C44.262 42.5786 47.3478 43.7793 50.9065 43.6704C53.9041 43.5137 56.7633 42.1889 58.9416 40.1625C59.0404 40.0493 59.1392 39.9361 59.241 39.8194C59.5223 39.5846 59.5223 39.5846 59.9669 39.5214C60.3934 39.5846 60.3934 39.5846 60.6656 39.7472C60.9163 40.163 60.903 40.4057 60.8289 40.8849C59.7896 42.8768 57.0313 44.2229 54.9805 44.9097C51.2014 46.0947 47.3735 45.9715 43.8075 44.1953C40.3705 42.4109 37.875 39.4068 36.6843 35.7381C35.5766 31.7925 36.0562 27.8552 38.0533 24.2805C38.4741 23.5986 38.9626 22.9967 39.4881 22.3928C39.5756 22.2848 39.6632 22.1767 39.7535 22.0655C41.9214 19.4729 45.1902 17.9137 48.5253 17.5214C52.4114 17.2314 56.1275 17.9305 59.1889 20.509Z" fill="#ED3237"/>
<path d="M123.69 18.9254C124.977 19.9638 126.017 21.4995 126.194 23.1608C126.24 24.0203 126.24 24.0203 125.922 24.4333C125.436 24.6116 125.192 24.6003 124.707 24.4153C124.458 23.9755 124.319 23.5765 124.184 23.0936C123.779 21.7168 122.901 20.6635 121.658 19.9367C120.479 19.3259 119.042 19.3248 117.762 19.588C116.384 20.0594 115.321 21.1124 114.666 22.3865C114.178 23.5681 114.193 25.246 114.675 26.4305C115.322 27.6324 116.217 28.5307 117.504 29.0276C118.229 29.2432 118.963 29.3617 119.71 29.474C122.253 29.8601 124.298 30.8435 125.868 32.939C127.123 34.9786 127.512 37.1961 127.074 39.5451C126.385 41.9489 125.008 43.7119 122.819 44.9299C120.556 46.0002 118.231 46.0128 115.887 45.1918C115.028 44.8405 114.358 44.3938 113.673 43.7742C113.584 43.6971 113.495 43.62 113.403 43.5405C112.114 42.3541 111.02 40.5353 110.885 38.7623C110.883 38.6255 110.881 38.4886 110.879 38.3475C110.875 38.2103 110.871 38.073 110.867 37.9316C110.915 37.562 110.915 37.562 111.108 37.2996C111.484 37.0342 111.774 37.0729 112.221 37.1286C112.586 37.3822 112.654 37.5513 112.764 37.9858C112.792 38.1529 112.819 38.3199 112.847 38.492C113.189 40.1818 113.881 41.5524 115.27 42.6184C116.916 43.6219 118.527 44.0364 120.454 43.707C122.199 43.2448 123.646 42.159 124.552 40.6077C125.265 39.2182 125.495 37.5737 125.12 36.0496C124.552 34.3622 123.662 32.9932 122.093 32.0992C121.004 31.5898 119.895 31.4372 118.711 31.2646C116.702 30.9662 115.038 30.2263 113.733 28.6156C112.528 26.8518 112.121 25.0568 112.434 22.9491C112.855 21.0206 113.98 19.5181 115.61 18.4305C118.174 16.9185 121.309 17.1745 123.69 18.9254Z" fill="#3E4095"/>
<path d="M98.5753 13.5801C98.9085 13.9156 99.0051 14.109 99.0602 14.5817C99.0568 14.8222 99.0568 14.8222 99.0533 15.0677C99.0512 15.3289 99.0512 15.3289 99.0491 15.5953C99.0454 15.7766 99.0418 15.9578 99.038 16.1444C99.0351 16.4196 99.0351 16.4196 99.0321 16.7003C99.0269 17.1532 99.0198 17.6059 99.0108 18.0587C99.1386 18.0574 99.2665 18.0561 99.3982 18.0548C100.603 18.0432 101.808 18.0344 103.013 18.0287C103.632 18.0257 104.251 18.0216 104.871 18.0151C105.468 18.0088 106.066 18.0053 106.664 18.0038C106.892 18.0028 107.12 18.0007 107.348 17.9976C107.667 17.9934 107.987 17.9928 108.306 17.9931C108.488 17.9918 108.67 17.9905 108.857 17.9892C109.318 18.0587 109.318 18.0587 109.673 18.319C109.899 18.6365 109.899 18.6365 109.881 19.1602C109.754 19.6478 109.754 19.6478 109.463 19.9368C109.032 19.9715 109.032 19.9715 108.471 19.9696C108.369 19.9696 108.267 19.9697 108.162 19.9697C107.824 19.9695 107.486 19.9672 107.149 19.965C106.915 19.9644 106.681 19.964 106.447 19.9637C105.831 19.9626 105.214 19.9598 104.598 19.9566C103.969 19.9537 103.341 19.9523 102.712 19.9509C101.478 19.9478 100.245 19.9428 99.0108 19.9368C99.0112 20.0658 99.0116 20.1948 99.012 20.3277C99.0216 23.465 99.0288 26.6022 99.0334 29.7395C99.0356 31.2566 99.0387 32.7738 99.0437 34.2909C99.048 35.613 99.0508 36.9351 99.0518 38.2572C99.0523 38.9575 99.0537 39.6577 99.0569 40.358C99.0598 41.0168 99.0607 41.6756 99.0601 42.3344C99.0602 42.5765 99.0611 42.8185 99.0627 43.0605C99.0649 43.3906 99.0644 43.7206 99.0632 44.0506C99.0636 44.2355 99.064 44.4203 99.0644 44.6108C99.0071 45.1062 98.9394 45.3138 98.5753 45.6523C97.7246 45.7582 97.7246 45.7582 97.3128 45.4949C97.0231 45.0725 97.07 44.7142 97.0711 44.207C97.0708 44.1034 97.0704 43.9998 97.07 43.893C97.0693 43.545 97.0717 43.197 97.0741 42.8489C97.0742 42.5998 97.0741 42.3506 97.0739 42.1015C97.0738 41.4242 97.0763 40.747 97.0794 40.0698C97.0821 39.3624 97.0823 38.6549 97.0829 37.9475C97.0842 36.6075 97.0878 35.2675 97.0922 33.9275C97.097 32.4021 97.0994 30.8767 97.1016 29.3513C97.1062 26.2131 97.1138 23.075 97.1235 19.9368C97.021 19.9398 96.9185 19.9428 96.8129 19.9459C96.3478 19.958 95.8828 19.9655 95.4177 19.9729C95.1757 19.9802 95.1757 19.9802 94.9289 19.9876C94.6959 19.9904 94.6959 19.9904 94.4582 19.9932C94.3153 19.9962 94.1723 19.9993 94.0251 20.0024C93.5302 19.9182 93.3586 19.7526 93.0586 19.3589C93.0679 18.9068 93.1102 18.62 93.3797 18.2515C93.7427 17.9818 93.9946 18.0092 94.444 18.0163C94.6777 18.0184 94.6777 18.0184 94.9161 18.0206C95.0786 18.0242 95.2412 18.0278 95.4086 18.0316C95.5728 18.0335 95.7371 18.0355 95.9063 18.0375C96.3121 18.0426 96.7178 18.0497 97.1235 18.0587C97.122 17.9384 97.1205 17.8181 97.1189 17.6942C97.114 17.2475 97.1103 16.8009 97.1076 16.3542C97.1054 16.066 97.1017 15.7778 97.098 15.4895C97.0971 15.3084 97.0961 15.1273 97.0952 14.9407C97.0936 14.7735 97.0921 14.6063 97.0906 14.4341C97.1235 14.0135 97.1235 14.0135 97.4139 13.5801C97.9015 13.4184 98.0929 13.4241 98.5753 13.5801Z" fill="#00A859"/>
<path d="M101.043 8.95703C101.139 9.00471 101.234 9.05238 101.333 9.1015C101.333 9.53491 101.333 9.53491 101.12 9.75782C101.023 9.83622 100.925 9.91463 100.825 9.99541C100.377 10.3699 99.9453 10.752 99.5276 11.1602C99.3841 11.2999 99.3841 11.2999 99.2378 11.4424C98.9784 11.7049 98.9784 11.7049 98.8652 12.1354C100.063 12.1354 101.261 12.1354 102.495 12.1354C102.495 12.2784 102.495 12.4214 102.495 12.5688C101.249 12.5688 100.003 12.5688 98.72 12.5688C98.6242 12.235 98.5284 11.9013 98.4297 11.5575C99.292 10.6993 100.154 9.84118 101.043 8.95703Z" fill="#00A859"/>
<path d="M94.7988 9.10156C95.3307 9.18446 95.5722 9.38656 95.9443 9.76578C96.0472 9.86961 96.1502 9.97343 96.2562 10.0804C96.3621 10.1894 96.468 10.2985 96.5772 10.4108C96.7394 10.5752 96.7394 10.5752 96.905 10.7429C97.1717 11.0135 97.4375 11.2851 97.7023 11.5575C97.6065 11.8913 97.5107 12.225 97.4119 12.5688C96.1663 12.5688 94.9207 12.5688 93.6374 12.5688C93.5895 12.4258 93.5415 12.2828 93.4922 12.1354C93.9478 11.9843 94.2254 11.9849 94.7007 12.0084C94.8499 12.0154 94.9992 12.0224 95.1529 12.0296C95.3085 12.0377 95.4641 12.0458 95.6245 12.0542C95.7817 12.0617 95.939 12.0692 96.1011 12.077C96.4897 12.0958 96.8782 12.1153 97.2668 12.1354C96.898 11.4192 96.3637 10.9248 95.7878 10.3747C95.6006 10.1957 95.4139 10.0161 95.2281 9.83576C95.1457 9.75714 95.0633 9.67851 94.9784 9.59751C94.7988 9.3905 94.7988 9.3905 94.7988 9.10156Z" fill="#00A859"/>
<path d="M97.8477 7.80127C97.9914 7.84894 98.1351 7.89662 98.2832 7.94574C98.2832 9.18529 98.2832 10.4248 98.2832 11.7019C98.1395 11.7019 97.9957 11.7019 97.8477 11.7019C97.8477 10.4147 97.8477 9.1275 97.8477 7.80127Z" fill="#00A859"/>
<path d="M98.5749 12.7134C99.2793 13.0259 99.7431 13.5393 100.281 14.0768C100.382 14.1752 100.483 14.2737 100.587 14.3751C100.683 14.4701 100.779 14.5652 100.877 14.6632C100.965 14.7498 101.052 14.8365 101.143 14.9258C101.333 15.1694 101.333 15.1694 101.333 15.6028C100.898 15.6028 100.898 15.6028 100.684 15.4007C100.608 15.3065 100.532 15.2123 100.453 15.1152C99.8236 14.3651 99.1299 13.6865 98.4297 13.0023C98.4776 12.907 98.5255 12.8116 98.5749 12.7134Z" fill="#00A859"/>
<path d="M97.2688 12.7134C97.4125 12.7611 97.5562 12.8087 97.7043 12.8578C97.0718 13.6198 96.3933 14.3148 95.6826 15.0051C95.376 15.2883 95.376 15.2883 95.2363 15.6028C95.0926 15.6028 94.9489 15.6028 94.8008 15.6028C94.8841 15.0735 95.0872 14.8331 95.4682 14.4628C95.5726 14.3604 95.6769 14.258 95.7844 14.1524C95.894 14.047 96.0035 13.9416 96.1164 13.833C96.2266 13.7254 96.3367 13.6177 96.4502 13.5068C96.7221 13.2413 96.995 12.9769 97.2688 12.7134Z" fill="#00A859"/>
</svg>
